<?xml version="1.0" encoding="UTF-8" standalone="no"?>
<!DOCTYPE svg PUBLIC "-//W3C//DTD SVG 1.1//EN" "http://www.w3.org/Graphics/SVG/1.1/DTD/svg11.dtd">
<svg width="100%" height="100%" viewBox="0 0 600 600" version="1.1" xmlns="http://www.w3.org/2000/svg" xmlns:xlink="http://www.w3.org/1999/xlink" xml:space="preserve" xmlns:serif="http://www.serif.com/" style="fill-rule:evenodd;clip-rule:evenodd;stroke-linejoin:round;stroke-miterlimit:2;">
    <g transform="matrix(0.994611,0,0,0.994611,7.21716,2.13208)">
        <circle cx="294.27" cy="300" r="300" style="fill:url(#_Radial1);"/>
    </g>
    <g transform="matrix(0.994611,0,0,0.994611,7.21716,2.13208)">
        <path d="M21.074,424.042C3.861,386.229 -5.73,344.226 -5.73,300C-5.73,134.425 128.696,0 294.27,0C459.845,0 594.27,134.425 594.27,300C594.27,329.982 589.863,358.943 581.66,386.27C577.511,392.042 573.11,397.628 568.437,402.829C572.087,399.989 575.676,397.072 579.198,394.079C577.102,400.423 574.8,406.674 572.299,412.823C551.775,428.524 529.422,441.844 505.883,452.387C485.189,461.655 463.014,471.005 440.723,470.656C456.943,492.08 477.173,508.419 499.06,519.15C445.43,569.291 373.408,600 294.27,600C285.806,600 277.422,599.649 269.134,598.96C230.733,554.948 174.478,536.195 125.77,548.182C104.017,533.377 84.309,515.788 67.158,495.929C81.91,492.162 97.635,488.972 112.989,488.04C95.139,485.941 77.129,485.338 59.19,486.308C56.647,483.105 54.168,479.848 51.754,476.539C99.284,472.941 147.692,480 192.329,496.648C213.574,504.572 235.932,513.476 251.564,529.371C262.066,449.072 214.203,376.099 143.84,365.872C130.576,363.945 118.521,362.899 103.329,367.195C70.812,374.078 41.482,394.664 21.074,424.042ZM403.137,175.258C413.729,214.03 416.085,254.467 411.077,294.051C408.706,248.341 386.366,199.157 388.051,182.364C391.408,177.916 396.629,175.658 403.137,175.258ZM129.964,252.269C165.072,271.836 195.606,298.451 220.378,329.729C186.067,299.435 135.3,280.974 124.483,268.019C123.655,262.508 125.695,257.197 129.964,252.269ZM138.12,245.069C140.055,243.704 142.166,242.382 144.434,241.109C195.134,209.982 255.829,209.427 298.862,237.333C312.654,245.018 320.452,254.27 328.484,265.001C371.09,321.924 353.46,407.394 289.326,456.841C289.479,434.548 279.934,412.456 270.484,391.845C242.62,331.067 196.158,278.42 138.12,245.069ZM413.987,176.045C416.317,176.472 418.739,177.055 421.236,177.785C478.95,192.218 521.823,235.186 532.003,285.454C536.165,300.684 535.013,312.73 532.969,325.976C522.123,396.247 448.731,443.465 368.529,432.257C384.561,416.765 393.661,394.487 401.772,373.312C425.687,310.875 430.78,240.843 413.987,176.045Z" style="fill:url(#_Radial2);"/>
    </g>
    <g transform="matrix(0.994611,0,0,0.994611,7.21716,2.13208)">
        <path d="M499.06,519.15C477.173,508.419 456.943,492.08 440.723,470.656C463.014,471.005 485.189,461.655 505.883,452.387C529.422,441.844 551.775,428.524 572.299,412.823C555.775,453.457 530.598,489.664 499.06,519.15Z" style="fill:white;"/>
    </g>
    <g transform="matrix(0.994611,0,0,0.994611,7.21716,2.13208)">
        <path d="M125.77,548.182C174.478,536.195 230.733,554.948 269.134,598.96C216.281,594.567 167.3,576.448 125.77,548.182Z" style="fill:white;"/>
    </g>
    <g transform="matrix(0.994611,0,0,0.994611,7.21716,2.13208)">
        <path d="M59.19,486.308C77.129,485.338 95.139,485.941 112.989,488.04C97.635,488.972 81.91,492.162 67.158,495.929C64.437,492.779 61.781,489.571 59.19,486.308Z" style="fill:white;"/>
    </g>
    <g transform="matrix(0.994611,0,0,0.994611,7.21716,2.13208)">
        <path d="M21.074,424.042C41.482,394.664 70.812,374.078 103.329,367.195C118.521,362.899 130.576,363.945 143.84,365.872C214.203,376.099 262.066,449.072 251.564,529.371C235.932,513.476 213.574,504.572 192.329,496.648C147.692,480 99.284,472.941 51.754,476.539C39.841,460.209 29.536,442.632 21.074,424.042Z" style="fill:white;"/>
    </g>
    <g transform="matrix(0.994611,0,0,0.994611,7.21716,2.13208)">
        <path d="M403.137,175.258C413.729,214.03 416.085,254.467 411.077,294.051C408.706,248.341 386.366,199.157 388.051,182.364C391.408,177.916 396.629,175.658 403.137,175.258Z" style="fill:white;"/>
    </g>
    <g transform="matrix(0.994611,0,0,0.994611,7.21716,2.13208)">
        <path d="M129.964,252.269C165.072,271.836 195.606,298.451 220.378,329.729C186.067,299.435 135.3,280.974 124.483,268.019C123.655,262.508 125.695,257.197 129.964,252.269Z" style="fill:white;"/>
    </g>
    <g transform="matrix(0.994611,0,0,0.994611,7.21716,2.13208)">
        <path d="M138.12,245.069C140.055,243.704 142.166,242.382 144.434,241.109C195.134,209.982 255.829,209.427 298.862,237.333C312.654,245.018 320.452,254.27 328.484,265.001C371.09,321.924 353.46,407.394 289.326,456.841C289.479,434.548 279.934,412.456 270.484,391.845C242.62,331.067 196.158,278.42 138.12,245.069Z" style="fill:white;"/>
    </g>
    <g transform="matrix(0.994611,0,0,0.994611,7.21716,2.13208)">
        <path d="M413.987,176.045C416.317,176.472 418.739,177.055 421.236,177.785C478.95,192.218 521.823,235.186 532.003,285.454C536.165,300.684 535.013,312.73 532.969,325.976C522.123,396.247 448.731,443.465 368.529,432.257C384.561,416.765 393.661,394.487 401.772,373.312C425.687,310.875 430.78,240.843 413.987,176.045Z" style="fill:white;"/>
    </g>
    <g transform="matrix(0.994611,0,0,0.994611,7.21716,2.13208)">
        <path d="M579.198,394.079C575.676,397.072 572.087,399.989 568.437,402.829C573.11,397.628 577.511,392.042 581.66,386.27C580.874,388.888 580.053,391.491 579.198,394.079Z" style="fill:white;"/>
    </g>
    <g transform="matrix(3.27037,0,0,3.27037,-426.163,1.03037)">
        <path d="M179.285,26.689C183.428,26.689 186.791,30.052 186.791,34.195C186.791,38.338 183.428,41.701 179.285,41.701C175.142,41.701 171.779,38.338 171.779,34.195C171.779,30.052 175.142,26.689 179.285,26.689Z" style="fill:white;"/>
    </g>
    <g transform="matrix(2.63832,0,0,2.63832,-57.0122,-5.7428)">
        <path d="M131.16,27.693C140.242,27.693 147.615,35.067 147.615,44.149C147.615,53.231 140.242,60.605 131.16,60.605C122.077,60.605 114.704,53.231 114.704,44.149C114.704,35.067 122.077,27.693 131.16,27.693Z" style="fill:white;"/>
    </g>
    <g transform="matrix(3.27037,0,0,3.27037,-438.881,-142.821)">
        <path d="M165.707,52.549C168.261,52.549 170.335,54.623 170.335,57.178C170.335,59.733 168.261,61.807 165.707,61.807C163.152,61.807 161.078,59.733 161.078,57.178C161.078,54.623 163.152,52.549 165.707,52.549Z" style="fill:rgb(2,162,0);"/>
    </g>
    <defs>
        <radialGradient id="_Radial1" cx="0" cy="0" r="1" gradientUnits="userSpaceOnUse" gradientTransform="matrix(-284.394,287.413,-287.413,-284.394,300,294.443)"><stop offset="0" style="stop-color:rgb(2,194,0);stop-opacity:1"/><stop offset="0.58" style="stop-color:rgb(2,177,0);stop-opacity:1"/><stop offset="0.8" style="stop-color:rgb(1,140,0);stop-opacity:1"/><stop offset="1" style="stop-color:rgb(1,104,0);stop-opacity:1"/></radialGradient>
        <radialGradient id="_Radial2" cx="0" cy="0" r="1" gradientUnits="userSpaceOnUse" gradientTransform="matrix(-284.394,287.413,-287.413,-284.394,300,294.443)"><stop offset="0" style="stop-color:rgb(2,194,0);stop-opacity:1"/><stop offset="0.58" style="stop-color:rgb(2,177,0);stop-opacity:1"/><stop offset="0.8" style="stop-color:rgb(1,140,0);stop-opacity:1"/><stop offset="1" style="stop-color:rgb(1,104,0);stop-opacity:1"/></radialGradient>
    </defs>
</svg>
